<mxfile host="app.diagrams.net" agent="Mozilla/5.0 (Windows NT 10.0; Win64; x64) AppleWebKit/537.36 (KHTML, like Gecko) Chrome/138.0.0.0 Safari/537.36" version="28.0.4">
  <diagram name="Página-1" id="T3_JBP636jaOhUNgMPUP">
    <mxGraphModel dx="651" dy="814" grid="1" gridSize="10" guides="1" tooltips="1" connect="1" arrows="1" fold="1" page="1" pageScale="1" pageWidth="827" pageHeight="1169" math="0" shadow="0">
      <root>
        <mxCell id="0" />
        <mxCell id="1" parent="0" />
        <mxCell id="CmLUMRAVv4de7CngBNyx-2" style="rounded=0;orthogonalLoop=1;jettySize=auto;html=1;entryX=0;entryY=0.5;entryDx=0;entryDy=0;" edge="1" parent="1" source="-t6dPeXq2aG0M5iMJdQL-1" target="CmLUMRAVv4de7CngBNyx-1">
          <mxGeometry relative="1" as="geometry" />
        </mxCell>
        <mxCell id="CmLUMRAVv4de7CngBNyx-4" value="1. Seleccionar Evento" style="edgeLabel;html=1;align=center;verticalAlign=middle;resizable=0;points=[];" vertex="1" connectable="0" parent="CmLUMRAVv4de7CngBNyx-2">
          <mxGeometry x="-0.0609" y="-3" relative="1" as="geometry">
            <mxPoint y="-8" as="offset" />
          </mxGeometry>
        </mxCell>
        <mxCell id="-t6dPeXq2aG0M5iMJdQL-1" value=":Administrador" style="html=1;whiteSpace=wrap;" parent="1" vertex="1">
          <mxGeometry x="120" y="70" width="110" height="50" as="geometry" />
        </mxCell>
        <mxCell id="CmLUMRAVv4de7CngBNyx-6" style="rounded=0;orthogonalLoop=1;jettySize=auto;html=1;entryX=1;entryY=0.5;entryDx=0;entryDy=0;" edge="1" parent="1" source="CmLUMRAVv4de7CngBNyx-1" target="CmLUMRAVv4de7CngBNyx-5">
          <mxGeometry relative="1" as="geometry" />
        </mxCell>
        <mxCell id="CmLUMRAVv4de7CngBNyx-7" value="2. Enviar Nuevo Estado" style="edgeLabel;html=1;align=center;verticalAlign=middle;resizable=0;points=[];" vertex="1" connectable="0" parent="CmLUMRAVv4de7CngBNyx-6">
          <mxGeometry x="-0.0548" y="-2" relative="1" as="geometry">
            <mxPoint as="offset" />
          </mxGeometry>
        </mxCell>
        <mxCell id="CmLUMRAVv4de7CngBNyx-1" value=":UI_Eventos" style="html=1;whiteSpace=wrap;" vertex="1" parent="1">
          <mxGeometry x="450" y="150" width="110" height="50" as="geometry" />
        </mxCell>
        <mxCell id="CmLUMRAVv4de7CngBNyx-12" style="rounded=0;orthogonalLoop=1;jettySize=auto;html=1;entryX=0;entryY=0.5;entryDx=0;entryDy=0;exitX=1;exitY=1;exitDx=0;exitDy=0;" edge="1" parent="1" source="CmLUMRAVv4de7CngBNyx-5" target="CmLUMRAVv4de7CngBNyx-11">
          <mxGeometry relative="1" as="geometry" />
        </mxCell>
        <mxCell id="CmLUMRAVv4de7CngBNyx-13" value="4. Actualizar Estado" style="edgeLabel;html=1;align=center;verticalAlign=middle;resizable=0;points=[];" vertex="1" connectable="0" parent="CmLUMRAVv4de7CngBNyx-12">
          <mxGeometry x="-0.002" relative="1" as="geometry">
            <mxPoint as="offset" />
          </mxGeometry>
        </mxCell>
        <mxCell id="CmLUMRAVv4de7CngBNyx-15" style="edgeStyle=orthogonalEdgeStyle;rounded=0;orthogonalLoop=1;jettySize=auto;html=1;entryX=0.5;entryY=0;entryDx=0;entryDy=0;" edge="1" parent="1" source="CmLUMRAVv4de7CngBNyx-5" target="CmLUMRAVv4de7CngBNyx-14">
          <mxGeometry relative="1" as="geometry" />
        </mxCell>
        <mxCell id="CmLUMRAVv4de7CngBNyx-16" value="5. Notificar Cliente Nuevo Estado" style="edgeLabel;html=1;align=center;verticalAlign=middle;resizable=0;points=[];" vertex="1" connectable="0" parent="CmLUMRAVv4de7CngBNyx-15">
          <mxGeometry x="-0.0145" y="-2" relative="1" as="geometry">
            <mxPoint as="offset" />
          </mxGeometry>
        </mxCell>
        <mxCell id="CmLUMRAVv4de7CngBNyx-5" value=":SistemaEventos" style="html=1;whiteSpace=wrap;" vertex="1" parent="1">
          <mxGeometry x="120" y="210" width="110" height="50" as="geometry" />
        </mxCell>
        <mxCell id="CmLUMRAVv4de7CngBNyx-8" style="edgeStyle=orthogonalEdgeStyle;rounded=0;orthogonalLoop=1;jettySize=auto;html=1;entryX=0;entryY=0.5;entryDx=0;entryDy=0;exitX=1;exitY=0.25;exitDx=0;exitDy=0;" edge="1" parent="1" source="CmLUMRAVv4de7CngBNyx-5" target="CmLUMRAVv4de7CngBNyx-5">
          <mxGeometry relative="1" as="geometry">
            <Array as="points">
              <mxPoint x="250" y="223" />
              <mxPoint x="250" y="190" />
              <mxPoint x="90" y="190" />
              <mxPoint x="90" y="235" />
            </Array>
          </mxGeometry>
        </mxCell>
        <mxCell id="CmLUMRAVv4de7CngBNyx-10" value="3. Validar Cambio Estado" style="edgeLabel;html=1;align=center;verticalAlign=middle;resizable=0;points=[];" vertex="1" connectable="0" parent="CmLUMRAVv4de7CngBNyx-8">
          <mxGeometry x="-0.0245" y="1" relative="1" as="geometry">
            <mxPoint as="offset" />
          </mxGeometry>
        </mxCell>
        <mxCell id="CmLUMRAVv4de7CngBNyx-11" value=":BD_Eventos" style="html=1;whiteSpace=wrap;" vertex="1" parent="1">
          <mxGeometry x="450" y="260" width="110" height="50" as="geometry" />
        </mxCell>
        <mxCell id="CmLUMRAVv4de7CngBNyx-14" value=":Notificación&amp;nbsp;" style="html=1;whiteSpace=wrap;" vertex="1" parent="1">
          <mxGeometry x="120" y="360" width="110" height="50" as="geometry" />
        </mxCell>
        <mxCell id="CmLUMRAVv4de7CngBNyx-17" value="Estados Posibles&lt;br&gt;&lt;br&gt;En planeación&lt;br&gt;En proceso&lt;div&gt;Terminado&lt;/div&gt;" style="html=1;whiteSpace=wrap;" vertex="1" parent="1">
          <mxGeometry x="359" y="345" width="110" height="80" as="geometry" />
        </mxCell>
      </root>
    </mxGraphModel>
  </diagram>
</mxfile>
